<mxfile host="65bd71144e">
    <diagram id="zBo4s4RG1MeOZV6qTSNW" name="Page-1">
        <mxGraphModel dx="2320" dy="942" grid="1" gridSize="10" guides="1" tooltips="1" connect="1" arrows="1" fold="1" page="1" pageScale="1" pageWidth="1390" pageHeight="980" math="0" shadow="0">
            <root>
                <mxCell id="0"/>
                <mxCell id="1" parent="0"/>
                <mxCell id="2" value="&lt;h2&gt;&lt;font style=&quot;font-size: 23px;&quot;&gt;Comments&lt;/font&gt;&lt;/h2&gt;" style="rounded=1;whiteSpace=wrap;html=1;strokeWidth=2;" parent="1" vertex="1">
                    <mxGeometry x="490" y="390" width="140" height="80" as="geometry"/>
                </mxCell>
                <mxCell id="3" value="&lt;h2&gt;&lt;b&gt;&lt;font style=&quot;font-size: 23px;&quot;&gt;Posts&lt;/font&gt;&lt;/b&gt;&lt;/h2&gt;" style="rounded=1;whiteSpace=wrap;html=1;strokeWidth=2;" parent="1" vertex="1">
                    <mxGeometry x="735" y="130" width="140" height="80" as="geometry"/>
                </mxCell>
                <mxCell id="4" value="&lt;h2&gt;&lt;font style=&quot;font-size: 23px;&quot;&gt;Like&lt;/font&gt;&lt;/h2&gt;" style="rounded=1;whiteSpace=wrap;html=1;strokeWidth=2;" parent="1" vertex="1">
                    <mxGeometry x="990" y="390" width="140" height="80" as="geometry"/>
                </mxCell>
                <mxCell id="5" value="&lt;h2&gt;&lt;font style=&quot;font-size: 23px;&quot;&gt;Users&lt;/font&gt;&lt;/h2&gt;" style="rounded=1;whiteSpace=wrap;html=1;strokeWidth=2;arcSize=24;" parent="1" vertex="1">
                    <mxGeometry x="735" y="610" width="140" height="80" as="geometry"/>
                </mxCell>
                <mxCell id="6" value="&lt;font style=&quot;font-size: 18px;&quot;&gt;id&lt;/font&gt;" style="ellipse;whiteSpace=wrap;html=1;align=center;fontStyle=4;rounded=1;strokeWidth=2;" parent="1" vertex="1">
                    <mxGeometry x="650" y="80" width="105" height="40" as="geometry"/>
                </mxCell>
                <mxCell id="7" value="&lt;font style=&quot;font-size: 18px;&quot;&gt;userId&lt;/font&gt;" style="ellipse;whiteSpace=wrap;html=1;align=center;rounded=1;strokeWidth=2;" parent="1" vertex="1">
                    <mxGeometry x="680" y="40" width="110" height="40" as="geometry"/>
                </mxCell>
                <mxCell id="8" value="&lt;font style=&quot;font-size: 18px;&quot;&gt;title&lt;/font&gt;" style="ellipse;whiteSpace=wrap;html=1;align=center;rounded=1;strokeWidth=2;" parent="1" vertex="1">
                    <mxGeometry x="750" y="10" width="110" height="40" as="geometry"/>
                </mxCell>
                <mxCell id="9" value="&lt;font style=&quot;font-size: 18px;&quot;&gt;content&lt;/font&gt;" style="ellipse;whiteSpace=wrap;html=1;align=center;rounded=1;strokeWidth=2;" parent="1" vertex="1">
                    <mxGeometry x="820" y="40" width="130" height="40" as="geometry"/>
                </mxCell>
                <mxCell id="10" value="&lt;font style=&quot;font-size: 18px;&quot;&gt;postedAt&lt;/font&gt;" style="ellipse;whiteSpace=wrap;html=1;align=center;rounded=1;strokeWidth=2;" parent="1" vertex="1">
                    <mxGeometry x="865" y="80" width="130" height="40" as="geometry"/>
                </mxCell>
                <mxCell id="11" value="" style="endArrow=classic;html=1;rounded=1;exitX=0.5;exitY=0;exitDx=0;exitDy=0;entryX=0.5;entryY=1;entryDx=0;entryDy=0;strokeWidth=2;" parent="1" source="3" target="8" edge="1">
                    <mxGeometry width="50" height="50" relative="1" as="geometry">
                        <mxPoint x="820" y="-10" as="sourcePoint"/>
                        <mxPoint x="825" y="30" as="targetPoint"/>
                    </mxGeometry>
                </mxCell>
                <mxCell id="12" value="" style="endArrow=classic;html=1;rounded=1;exitX=0.5;exitY=0;exitDx=0;exitDy=0;strokeWidth=2;" parent="1" source="3" target="10" edge="1">
                    <mxGeometry width="50" height="50" relative="1" as="geometry">
                        <mxPoint x="910" y="40" as="sourcePoint"/>
                        <mxPoint x="960" y="-10" as="targetPoint"/>
                    </mxGeometry>
                </mxCell>
                <mxCell id="13" value="" style="endArrow=classic;html=1;rounded=1;exitX=0.5;exitY=0;exitDx=0;exitDy=0;entryX=0.266;entryY=1.07;entryDx=0;entryDy=0;entryPerimeter=0;strokeWidth=2;" parent="1" source="3" target="9" edge="1">
                    <mxGeometry width="50" height="50" relative="1" as="geometry">
                        <mxPoint x="830" y="60" as="sourcePoint"/>
                        <mxPoint x="880" y="10" as="targetPoint"/>
                    </mxGeometry>
                </mxCell>
                <mxCell id="14" value="" style="endArrow=classic;html=1;rounded=1;exitX=0.5;exitY=0;exitDx=0;exitDy=0;entryX=0.773;entryY=1;entryDx=0;entryDy=0;entryPerimeter=0;strokeWidth=2;" parent="1" source="3" target="7" edge="1">
                    <mxGeometry width="50" height="50" relative="1" as="geometry">
                        <mxPoint x="720" y="30" as="sourcePoint"/>
                        <mxPoint x="770" y="-20" as="targetPoint"/>
                    </mxGeometry>
                </mxCell>
                <mxCell id="15" value="" style="endArrow=classic;html=1;rounded=1;exitX=0.5;exitY=0;exitDx=0;exitDy=0;entryX=1;entryY=1;entryDx=0;entryDy=0;strokeWidth=2;" parent="1" source="3" target="6" edge="1">
                    <mxGeometry width="50" height="50" relative="1" as="geometry">
                        <mxPoint x="650" y="70" as="sourcePoint"/>
                        <mxPoint x="700" y="20" as="targetPoint"/>
                    </mxGeometry>
                </mxCell>
                <mxCell id="16" value="&lt;font style=&quot;font-size: 18px;&quot;&gt;UserId&lt;/font&gt;" style="ellipse;whiteSpace=wrap;html=1;align=center;rounded=1;" parent="1" vertex="1">
                    <mxGeometry x="1230" y="400" width="80" height="40" as="geometry"/>
                </mxCell>
                <mxCell id="17" value="&lt;span style=&quot;font-size: 18px;&quot;&gt;postId&lt;/span&gt;" style="ellipse;whiteSpace=wrap;html=1;align=center;rounded=1;strokeWidth=2;" parent="1" vertex="1">
                    <mxGeometry x="1230" y="450" width="70" height="40" as="geometry"/>
                </mxCell>
                <mxCell id="18" value="&lt;font style=&quot;font-size: 18px;&quot;&gt;id&lt;/font&gt;" style="ellipse;whiteSpace=wrap;html=1;align=center;fontStyle=4;rounded=1;strokeWidth=2;" parent="1" vertex="1">
                    <mxGeometry x="1200" y="350" width="70" height="40" as="geometry"/>
                </mxCell>
                <mxCell id="19" value="" style="endArrow=classic;html=1;rounded=1;entryX=-0.003;entryY=0.807;entryDx=0;entryDy=0;entryPerimeter=0;exitX=1;exitY=0.5;exitDx=0;exitDy=0;strokeWidth=2;" parent="1" source="4" target="18" edge="1">
                    <mxGeometry width="50" height="50" relative="1" as="geometry">
                        <mxPoint x="1160" y="430" as="sourcePoint"/>
                        <mxPoint x="1210" y="380" as="targetPoint"/>
                    </mxGeometry>
                </mxCell>
                <mxCell id="20" value="" style="endArrow=classic;html=1;rounded=1;exitX=1;exitY=0.5;exitDx=0;exitDy=0;entryX=0;entryY=0.5;entryDx=0;entryDy=0;strokeWidth=2;" parent="1" source="4" target="16" edge="1">
                    <mxGeometry width="50" height="50" relative="1" as="geometry">
                        <mxPoint x="1180" y="470" as="sourcePoint"/>
                        <mxPoint x="1230" y="420" as="targetPoint"/>
                    </mxGeometry>
                </mxCell>
                <mxCell id="21" value="" style="endArrow=classic;html=1;rounded=1;exitX=1;exitY=0.5;exitDx=0;exitDy=0;entryX=0;entryY=0.5;entryDx=0;entryDy=0;strokeWidth=2;" parent="1" source="4" target="17" edge="1">
                    <mxGeometry width="50" height="50" relative="1" as="geometry">
                        <mxPoint x="1140" y="500" as="sourcePoint"/>
                        <mxPoint x="1190" y="450" as="targetPoint"/>
                    </mxGeometry>
                </mxCell>
                <mxCell id="22" value="&lt;font style=&quot;font-size: 18px;&quot;&gt;id&lt;/font&gt;" style="ellipse;whiteSpace=wrap;html=1;align=center;fontStyle=4;rounded=1;strokeWidth=2;" parent="1" vertex="1">
                    <mxGeometry x="420" y="320" width="100" height="40" as="geometry"/>
                </mxCell>
                <mxCell id="23" value="&lt;span style=&quot;font-size: 18px;&quot;&gt;userId&lt;/span&gt;" style="ellipse;whiteSpace=wrap;html=1;align=center;rounded=1;strokeWidth=2;" parent="1" vertex="1">
                    <mxGeometry x="390" y="500" width="100" height="40" as="geometry"/>
                </mxCell>
                <mxCell id="24" value="&lt;span style=&quot;font-size: 18px;&quot;&gt;postId&lt;/span&gt;" style="ellipse;whiteSpace=wrap;html=1;align=center;rounded=1;strokeWidth=2;" parent="1" vertex="1">
                    <mxGeometry x="340" y="450" width="100" height="40" as="geometry"/>
                </mxCell>
                <mxCell id="25" value="&lt;span style=&quot;font-size: 18px;&quot;&gt;comment&lt;/span&gt;" style="ellipse;whiteSpace=wrap;html=1;align=center;rounded=1;" parent="1" vertex="1">
                    <mxGeometry x="320" y="400" width="100" height="40" as="geometry"/>
                </mxCell>
                <mxCell id="26" value="&lt;span style=&quot;font-size: 18px;&quot;&gt;postedAt&lt;/span&gt;" style="ellipse;whiteSpace=wrap;html=1;align=center;rounded=1;strokeWidth=2;" parent="1" vertex="1">
                    <mxGeometry x="360" y="360" width="100" height="40" as="geometry"/>
                </mxCell>
                <mxCell id="27" value="" style="endArrow=classic;html=1;rounded=1;exitX=0;exitY=0.5;exitDx=0;exitDy=0;entryX=0.976;entryY=0.775;entryDx=0;entryDy=0;entryPerimeter=0;strokeWidth=2;" parent="1" source="2" target="25" edge="1">
                    <mxGeometry width="50" height="50" relative="1" as="geometry">
                        <mxPoint x="340" y="470" as="sourcePoint"/>
                        <mxPoint x="400" y="430" as="targetPoint"/>
                    </mxGeometry>
                </mxCell>
                <mxCell id="28" value="" style="endArrow=classic;html=1;rounded=1;entryX=1;entryY=0.5;entryDx=0;entryDy=0;strokeWidth=2;" parent="1" target="24" edge="1">
                    <mxGeometry width="50" height="50" relative="1" as="geometry">
                        <mxPoint x="490" y="430" as="sourcePoint"/>
                        <mxPoint x="750" y="370" as="targetPoint"/>
                    </mxGeometry>
                </mxCell>
                <mxCell id="29" value="" style="endArrow=classic;html=1;rounded=1;entryX=0.5;entryY=0;entryDx=0;entryDy=0;exitX=0;exitY=0.5;exitDx=0;exitDy=0;strokeWidth=2;" parent="1" source="2" target="23" edge="1">
                    <mxGeometry width="50" height="50" relative="1" as="geometry">
                        <mxPoint x="480" y="440" as="sourcePoint"/>
                        <mxPoint x="750" y="370" as="targetPoint"/>
                    </mxGeometry>
                </mxCell>
                <mxCell id="30" value="" style="endArrow=classic;html=1;rounded=1;entryX=1;entryY=1;entryDx=0;entryDy=0;exitX=0;exitY=0.5;exitDx=0;exitDy=0;strokeWidth=2;" parent="1" source="2" target="26" edge="1">
                    <mxGeometry width="50" height="50" relative="1" as="geometry">
                        <mxPoint x="700" y="420" as="sourcePoint"/>
                        <mxPoint x="750" y="370" as="targetPoint"/>
                    </mxGeometry>
                </mxCell>
                <mxCell id="31" value="" style="endArrow=classic;html=1;rounded=1;entryX=0.5;entryY=1;entryDx=0;entryDy=0;exitX=0;exitY=0.5;exitDx=0;exitDy=0;strokeWidth=2;" parent="1" source="2" target="22" edge="1">
                    <mxGeometry width="50" height="50" relative="1" as="geometry">
                        <mxPoint x="700" y="420" as="sourcePoint"/>
                        <mxPoint x="750" y="370" as="targetPoint"/>
                    </mxGeometry>
                </mxCell>
                <mxCell id="32" value="&lt;font style=&quot;font-size: 18px;&quot;&gt;id&lt;/font&gt;" style="ellipse;whiteSpace=wrap;html=1;align=center;fontStyle=4;rounded=1;strokeWidth=2;" parent="1" vertex="1">
                    <mxGeometry x="665" y="740" width="100" height="40" as="geometry"/>
                </mxCell>
                <mxCell id="33" value="&lt;font style=&quot;font-size: 18px;&quot;&gt;name&lt;/font&gt;" style="ellipse;whiteSpace=wrap;html=1;align=center;rounded=1;strokeWidth=2;" parent="1" vertex="1">
                    <mxGeometry x="735" y="780" width="100" height="40" as="geometry"/>
                </mxCell>
                <mxCell id="35" value="&lt;span style=&quot;font-size: 18px;&quot;&gt;lastName&lt;/span&gt;" style="ellipse;whiteSpace=wrap;html=1;align=center;rounded=1;strokeWidth=2;" parent="1" vertex="1">
                    <mxGeometry x="810" y="855" width="100" height="40" as="geometry"/>
                </mxCell>
                <mxCell id="36" value="&lt;span style=&quot;font-size: 18px;&quot;&gt;userName&lt;/span&gt;" style="ellipse;whiteSpace=wrap;html=1;align=center;rounded=1;strokeWidth=2;" parent="1" vertex="1">
                    <mxGeometry x="795" y="740" width="100" height="40" as="geometry"/>
                </mxCell>
                <mxCell id="37" value="&lt;span style=&quot;font-size: 18px;&quot;&gt;email&lt;/span&gt;" style="ellipse;whiteSpace=wrap;html=1;align=center;rounded=1;strokeWidth=2;" parent="1" vertex="1">
                    <mxGeometry x="890" y="760" width="100" height="40" as="geometry"/>
                </mxCell>
                <mxCell id="38" value="&lt;span style=&quot;font-size: 18px;&quot;&gt;password&lt;/span&gt;" style="ellipse;whiteSpace=wrap;html=1;align=center;rounded=1;strokeWidth=2;" parent="1" vertex="1">
                    <mxGeometry x="895" y="700" width="100" height="40" as="geometry"/>
                </mxCell>
                <mxCell id="39" value="" style="endArrow=classic;html=1;rounded=1;exitX=0.5;exitY=1;exitDx=0;exitDy=0;entryX=1;entryY=0;entryDx=0;entryDy=0;strokeWidth=2;" parent="1" source="5" target="32" edge="1">
                    <mxGeometry width="50" height="50" relative="1" as="geometry">
                        <mxPoint x="590" y="700" as="sourcePoint"/>
                        <mxPoint x="640" y="650" as="targetPoint"/>
                    </mxGeometry>
                </mxCell>
                <mxCell id="40" value="" style="endArrow=classic;html=1;rounded=1;exitX=0.5;exitY=1;exitDx=0;exitDy=0;entryX=0.5;entryY=0;entryDx=0;entryDy=0;strokeWidth=2;" parent="1" source="5" target="33" edge="1">
                    <mxGeometry width="50" height="50" relative="1" as="geometry">
                        <mxPoint x="770" y="760" as="sourcePoint"/>
                        <mxPoint x="730" y="770" as="targetPoint"/>
                    </mxGeometry>
                </mxCell>
                <mxCell id="41" value="" style="endArrow=classic;html=1;rounded=1;exitX=0.5;exitY=1;exitDx=0;exitDy=0;entryX=0.5;entryY=0;entryDx=0;entryDy=0;strokeWidth=2;" parent="1" source="5" target="36" edge="1">
                    <mxGeometry width="50" height="50" relative="1" as="geometry">
                        <mxPoint x="850" y="750" as="sourcePoint"/>
                        <mxPoint x="900" y="700" as="targetPoint"/>
                    </mxGeometry>
                </mxCell>
                <mxCell id="42" value="" style="endArrow=classic;html=1;rounded=1;exitX=0.5;exitY=1;exitDx=0;exitDy=0;entryX=0.5;entryY=0;entryDx=0;entryDy=0;strokeWidth=2;" parent="1" source="5" target="37" edge="1">
                    <mxGeometry width="50" height="50" relative="1" as="geometry">
                        <mxPoint x="870" y="760" as="sourcePoint"/>
                        <mxPoint x="920" y="710" as="targetPoint"/>
                    </mxGeometry>
                </mxCell>
                <mxCell id="43" value="" style="endArrow=classic;html=1;rounded=1;exitX=0.5;exitY=1;exitDx=0;exitDy=0;entryX=0;entryY=0;entryDx=0;entryDy=0;strokeWidth=2;" parent="1" source="5" target="38" edge="1">
                    <mxGeometry width="50" height="50" relative="1" as="geometry">
                        <mxPoint x="900" y="730" as="sourcePoint"/>
                        <mxPoint x="950" y="680" as="targetPoint"/>
                    </mxGeometry>
                </mxCell>
                <mxCell id="44" value="" style="endArrow=classic;html=1;rounded=1;entryX=0.5;entryY=0;entryDx=0;entryDy=0;exitX=0.5;exitY=1;exitDx=0;exitDy=0;strokeWidth=2;" parent="1" source="33" target="61" edge="1">
                    <mxGeometry width="50" height="50" relative="1" as="geometry">
                        <mxPoint x="710" y="860" as="sourcePoint"/>
                        <mxPoint x="707.8553390593274" y="855.8578643762689" as="targetPoint"/>
                    </mxGeometry>
                </mxCell>
                <mxCell id="45" value="" style="endArrow=classic;html=1;rounded=1;exitX=0.5;exitY=1;exitDx=0;exitDy=0;entryX=0;entryY=0;entryDx=0;entryDy=0;strokeWidth=2;" parent="1" source="33" target="35" edge="1">
                    <mxGeometry width="50" height="50" relative="1" as="geometry">
                        <mxPoint x="770" y="880" as="sourcePoint"/>
                        <mxPoint x="820" y="830" as="targetPoint"/>
                    </mxGeometry>
                </mxCell>
                <mxCell id="46" value="&lt;font style=&quot;font-size: 14px;&quot;&gt;&lt;b&gt;Create&amp;nbsp;&lt;/b&gt;&lt;/font&gt;&lt;div style=&quot;font-size: 14px;&quot;&gt;&lt;font style=&quot;font-size: 14px;&quot;&gt;&lt;b&gt;Post&lt;/b&gt;&lt;/font&gt;&lt;/div&gt;" style="shape=rhombus;perimeter=rhombusPerimeter;whiteSpace=wrap;html=1;align=center;rounded=1;strokeWidth=2;" parent="1" vertex="1">
                    <mxGeometry x="745" y="370" width="120" height="60" as="geometry"/>
                </mxCell>
                <mxCell id="47" value="&lt;font style=&quot;font-size: 14px;&quot;&gt;&lt;b&gt;Add&lt;/b&gt;&lt;/font&gt;&lt;div style=&quot;font-size: 14px;&quot;&gt;&lt;font style=&quot;font-size: 14px;&quot;&gt;&lt;b&gt;Like&lt;/b&gt;&lt;/font&gt;&lt;/div&gt;" style="shape=rhombus;perimeter=rhombusPerimeter;whiteSpace=wrap;html=1;align=center;rounded=1;strokeWidth=2;" parent="1" vertex="1">
                    <mxGeometry x="995" y="140" width="130" height="60" as="geometry"/>
                </mxCell>
                <mxCell id="48" value="&lt;font style=&quot;font-size: 14px;&quot;&gt;&lt;b&gt;Add&lt;/b&gt;&lt;/font&gt;&lt;div style=&quot;font-size: 14px;&quot;&gt;&lt;b&gt;Comment&lt;/b&gt;&lt;/div&gt;" style="shape=rhombus;perimeter=rhombusPerimeter;whiteSpace=wrap;html=1;align=center;rounded=1;strokeWidth=2;" parent="1" vertex="1">
                    <mxGeometry x="500" y="140" width="120" height="60" as="geometry"/>
                </mxCell>
                <mxCell id="49" value="&lt;font style=&quot;font-size: 14px;&quot;&gt;&lt;b&gt;Create&amp;nbsp;&lt;/b&gt;&lt;/font&gt;&lt;div style=&quot;font-size: 14px;&quot;&gt;&lt;b&gt;Like&lt;/b&gt;&lt;/div&gt;" style="shape=rhombus;perimeter=rhombusPerimeter;whiteSpace=wrap;html=1;align=center;rounded=1;strokeWidth=2;" parent="1" vertex="1">
                    <mxGeometry x="1000" y="620" width="120" height="60" as="geometry"/>
                </mxCell>
                <mxCell id="50" value="&lt;font style=&quot;font-size: 14px;&quot;&gt;&lt;b&gt;Create&amp;nbsp;&lt;/b&gt;&lt;/font&gt;&lt;div style=&quot;font-size: 14px;&quot;&gt;&lt;b&gt;Comment&lt;/b&gt;&lt;/div&gt;" style="shape=rhombus;perimeter=rhombusPerimeter;whiteSpace=wrap;html=1;align=center;rounded=1;strokeWidth=2;" parent="1" vertex="1">
                    <mxGeometry x="490" y="620" width="120" height="60" as="geometry"/>
                </mxCell>
                <mxCell id="51" value="" style="endArrow=none;html=1;rounded=1;entryX=0;entryY=0.5;entryDx=0;entryDy=0;exitX=1;exitY=0.5;exitDx=0;exitDy=0;shape=link;endSize=10;startSize=10;strokeWidth=3;fillColor=#d5e8d4;strokeColor=#82b366;" parent="1" source="5" target="49" edge="1">
                    <mxGeometry width="50" height="50" relative="1" as="geometry">
                        <mxPoint x="910" y="660" as="sourcePoint"/>
                        <mxPoint x="950" y="690" as="targetPoint"/>
                    </mxGeometry>
                </mxCell>
                <mxCell id="52" value="" style="endArrow=none;html=1;rounded=1;exitX=0.5;exitY=0;exitDx=0;exitDy=0;entryX=0.5;entryY=1;entryDx=0;entryDy=0;endSize=10;startSize=10;strokeWidth=3;fillColor=#f8cecc;strokeColor=#b85450;" parent="1" source="49" target="4" edge="1">
                    <mxGeometry width="50" height="50" relative="1" as="geometry">
                        <mxPoint x="900" y="510" as="sourcePoint"/>
                        <mxPoint x="950" y="460" as="targetPoint"/>
                    </mxGeometry>
                </mxCell>
                <mxCell id="53" value="" style="endArrow=none;html=1;rounded=1;entryX=0.5;entryY=1;entryDx=0;entryDy=0;exitX=0.5;exitY=0;exitDx=0;exitDy=0;strokeWidth=3;fillColor=#f8cecc;strokeColor=#b85450;" parent="1" source="4" target="47" edge="1">
                    <mxGeometry width="50" height="50" relative="1" as="geometry">
                        <mxPoint x="1040" y="350" as="sourcePoint"/>
                        <mxPoint x="1090" y="300" as="targetPoint"/>
                    </mxGeometry>
                </mxCell>
                <mxCell id="54" value="" style="endArrow=none;html=1;rounded=1;exitX=1;exitY=0.5;exitDx=0;exitDy=0;entryX=0;entryY=0.5;entryDx=0;entryDy=0;shape=link;strokeWidth=3;fillColor=#d5e8d4;strokeColor=#82b366;" parent="1" source="3" target="47" edge="1">
                    <mxGeometry width="50" height="50" relative="1" as="geometry">
                        <mxPoint x="910" y="200" as="sourcePoint"/>
                        <mxPoint x="960" y="150" as="targetPoint"/>
                    </mxGeometry>
                </mxCell>
                <mxCell id="55" value="" style="endArrow=none;html=1;rounded=1;exitX=1;exitY=0.5;exitDx=0;exitDy=0;entryX=0;entryY=0.5;entryDx=0;entryDy=0;shape=link;strokeWidth=3;fillColor=#d5e8d4;strokeColor=#82b366;" parent="1" source="50" target="5" edge="1">
                    <mxGeometry width="50" height="50" relative="1" as="geometry">
                        <mxPoint x="750" y="510" as="sourcePoint"/>
                        <mxPoint x="800" y="460" as="targetPoint"/>
                    </mxGeometry>
                </mxCell>
                <mxCell id="56" value="" style="endArrow=none;html=1;rounded=1;exitX=0.5;exitY=0;exitDx=0;exitDy=0;entryX=0.444;entryY=1.004;entryDx=0;entryDy=0;entryPerimeter=0;strokeWidth=3;fillColor=#f8cecc;strokeColor=#b85450;" parent="1" source="50" target="2" edge="1">
                    <mxGeometry width="50" height="50" relative="1" as="geometry">
                        <mxPoint x="750" y="510" as="sourcePoint"/>
                        <mxPoint x="550" y="480" as="targetPoint"/>
                    </mxGeometry>
                </mxCell>
                <mxCell id="57" value="" style="endArrow=none;html=1;rounded=1;exitX=1;exitY=0.5;exitDx=0;exitDy=0;entryX=0;entryY=0.5;entryDx=0;entryDy=0;shape=link;strokeWidth=3;fillColor=#d5e8d4;strokeColor=#82b366;" parent="1" source="48" target="3" edge="1">
                    <mxGeometry width="50" height="50" relative="1" as="geometry">
                        <mxPoint x="660" y="200" as="sourcePoint"/>
                        <mxPoint x="710" y="150" as="targetPoint"/>
                    </mxGeometry>
                </mxCell>
                <mxCell id="58" value="" style="endArrow=none;html=1;rounded=1;exitX=0.5;exitY=0;exitDx=0;exitDy=0;entryX=0.5;entryY=1;entryDx=0;entryDy=0;strokeWidth=3;fillColor=#f8cecc;strokeColor=#b85450;" parent="1" source="2" target="48" edge="1">
                    <mxGeometry width="50" height="50" relative="1" as="geometry">
                        <mxPoint x="750" y="280" as="sourcePoint"/>
                        <mxPoint x="570" y="190" as="targetPoint"/>
                    </mxGeometry>
                </mxCell>
                <mxCell id="59" value="" style="endArrow=none;html=1;rounded=1;entryX=0.5;entryY=1;entryDx=0;entryDy=0;exitX=0.5;exitY=0;exitDx=0;exitDy=0;strokeWidth=3;fillColor=#f8cecc;strokeColor=#b85450;" parent="1" source="46" target="3" edge="1">
                    <mxGeometry width="50" height="50" relative="1" as="geometry">
                        <mxPoint x="750" y="400" as="sourcePoint"/>
                        <mxPoint x="810" y="270" as="targetPoint"/>
                    </mxGeometry>
                </mxCell>
                <mxCell id="60" value="" style="endArrow=none;html=1;rounded=1;entryX=0.5;entryY=1;entryDx=0;entryDy=0;exitX=0.5;exitY=0;exitDx=0;exitDy=0;shape=link;strokeWidth=3;fillColor=#d5e8d4;strokeColor=#82b366;" parent="1" source="5" target="46" edge="1">
                    <mxGeometry width="50" height="50" relative="1" as="geometry">
                        <mxPoint x="722.5" y="550" as="sourcePoint"/>
                        <mxPoint x="772.5" y="500" as="targetPoint"/>
                    </mxGeometry>
                </mxCell>
                <mxCell id="61" value="&lt;span style=&quot;font-size: 18px;&quot;&gt;firstName&lt;/span&gt;" style="ellipse;whiteSpace=wrap;html=1;align=center;rounded=1;strokeWidth=2;" parent="1" vertex="1">
                    <mxGeometry x="700" y="855" width="100" height="40" as="geometry"/>
                </mxCell>
                <mxCell id="62" value="&lt;h2 style=&quot;border-color: rgb(0, 0, 0); color: rgb(240, 240, 240); font-family: Helvetica; font-style: normal; font-variant-ligatures: normal; font-variant-caps: normal; letter-spacing: normal; orphans: 2; text-align: center; text-indent: 0px; text-transform: none; widows: 2; word-spacing: 0px; -webkit-text-stroke-width: 0px; background-color: rgb(42, 37, 47); text-decoration-thickness: initial; text-decoration-style: initial; text-decoration-color: initial;&quot;&gt;&lt;font style=&quot;border-color: rgb(0, 0, 0); font-size: 20px;&quot;&gt;User_information&lt;/font&gt;&lt;/h2&gt;" style="html=1;dashed=0;whitespace=wrap;strokeWidth=2;strokeColor=default;shadow=0;glass=0;rounded=1;" vertex="1" parent="1">
                    <mxGeometry x="170" y="700" width="180" height="85" as="geometry"/>
                </mxCell>
                <mxCell id="69" value="&lt;span style=&quot;font-size: 14px;&quot;&gt;&lt;b&gt;Have Profile&lt;/b&gt;&lt;/span&gt;" style="shape=rhombus;perimeter=rhombusPerimeter;whiteSpace=wrap;html=1;align=center;rounded=1;strokeWidth=2;" vertex="1" parent="1">
                    <mxGeometry x="420" y="780" width="120" height="60" as="geometry"/>
                </mxCell>
                <mxCell id="74" value="" style="endArrow=none;html=1;rounded=1;entryX=0;entryY=1;entryDx=0;entryDy=0;shape=link;strokeWidth=3;fillColor=#d5e8d4;strokeColor=#82b366;exitX=1;exitY=0.5;exitDx=0;exitDy=0;" edge="1" parent="1" source="69" target="5">
                    <mxGeometry width="50" height="50" relative="1" as="geometry">
                        <mxPoint x="630" y="680" as="sourcePoint"/>
                        <mxPoint x="745" y="660" as="targetPoint"/>
                    </mxGeometry>
                </mxCell>
                <mxCell id="75" value="" style="endArrow=none;html=1;rounded=1;exitX=1;exitY=0.5;exitDx=0;exitDy=0;shape=link;strokeWidth=3;fillColor=#d5e8d4;strokeColor=#82b366;entryX=0;entryY=0.5;entryDx=0;entryDy=0;" edge="1" parent="1" source="62" target="69">
                    <mxGeometry width="50" height="50" relative="1" as="geometry">
                        <mxPoint x="290" y="760" as="sourcePoint"/>
                        <mxPoint x="370" y="770" as="targetPoint"/>
                    </mxGeometry>
                </mxCell>
                <mxCell id="76" value="&lt;span style=&quot;font-size: 18px;&quot;&gt;joinedAt&lt;/span&gt;" style="ellipse;whiteSpace=wrap;html=1;align=center;rounded=1;shadow=0;glass=0;sketch=0;strokeColor=default;strokeWidth=2;fontSize=20;" vertex="1" parent="1">
                    <mxGeometry x="110" y="830" width="110" height="40" as="geometry"/>
                </mxCell>
                <mxCell id="77" value="&lt;span style=&quot;font-size: 18px;&quot;&gt;about&lt;/span&gt;" style="ellipse;whiteSpace=wrap;html=1;align=center;rounded=1;shadow=0;glass=0;sketch=0;strokeColor=default;strokeWidth=2;fontSize=20;" vertex="1" parent="1">
                    <mxGeometry x="180" y="880" width="100" height="40" as="geometry"/>
                </mxCell>
                <mxCell id="78" value="&lt;span style=&quot;font-size: 18px;&quot;&gt;userId&lt;/span&gt;" style="ellipse;whiteSpace=wrap;html=1;align=center;rounded=1;shadow=0;glass=0;sketch=0;strokeColor=default;strokeWidth=2;fontSize=20;" vertex="1" parent="1">
                    <mxGeometry x="270" y="840" width="100" height="40" as="geometry"/>
                </mxCell>
                <mxCell id="79" value="" style="endArrow=classic;html=1;strokeWidth=3;fontSize=20;exitX=0.5;exitY=1;exitDx=0;exitDy=0;entryX=0.5;entryY=0;entryDx=0;entryDy=0;" edge="1" parent="1" source="62" target="76">
                    <mxGeometry width="50" height="50" relative="1" as="geometry">
                        <mxPoint x="40" y="835" as="sourcePoint"/>
                        <mxPoint x="90" y="785" as="targetPoint"/>
                    </mxGeometry>
                </mxCell>
                <mxCell id="81" value="" style="endArrow=classic;html=1;strokeWidth=3;fontSize=20;entryX=0.5;entryY=0;entryDx=0;entryDy=0;exitX=0.5;exitY=1;exitDx=0;exitDy=0;" edge="1" parent="1" source="62" target="77">
                    <mxGeometry width="50" height="50" relative="1" as="geometry">
                        <mxPoint x="270" y="810" as="sourcePoint"/>
                        <mxPoint x="145" y="860" as="targetPoint"/>
                    </mxGeometry>
                </mxCell>
                <mxCell id="82" value="" style="endArrow=classic;html=1;strokeWidth=3;fontSize=20;exitX=0.5;exitY=1;exitDx=0;exitDy=0;entryX=0.5;entryY=0;entryDx=0;entryDy=0;" edge="1" parent="1" source="62" target="78">
                    <mxGeometry width="50" height="50" relative="1" as="geometry">
                        <mxPoint x="280" y="805" as="sourcePoint"/>
                        <mxPoint x="155" y="870" as="targetPoint"/>
                    </mxGeometry>
                </mxCell>
                <mxCell id="86" value="&lt;b&gt;&lt;font color=&quot;#3333ff&quot; style=&quot;font-size: 19px;&quot;&gt;M&lt;/font&gt;&lt;/b&gt;" style="ellipse;whiteSpace=wrap;html=1;aspect=fixed;strokeWidth=2;fontFamily=Tahoma;spacingBottom=4;spacingRight=2;strokeColor=none;rounded=1;shadow=0;glass=0;sketch=1;fontSize=20;curveFitting=1;jiggle=2;fillColor=none;" vertex="1" parent="1">
                    <mxGeometry x="1020" y="580" width="40" height="40" as="geometry"/>
                </mxCell>
                <mxCell id="89" value="&lt;b&gt;&lt;font color=&quot;#3333ff&quot; style=&quot;font-size: 20px;&quot;&gt;1&lt;/font&gt;&lt;/b&gt;" style="ellipse;whiteSpace=wrap;html=1;aspect=fixed;strokeWidth=2;fontFamily=Tahoma;spacingBottom=4;spacingRight=2;strokeColor=none;rounded=1;shadow=0;glass=0;sketch=1;fontSize=20;curveFitting=1;jiggle=2;fillColor=none;" vertex="1" parent="1">
                    <mxGeometry x="962.5" y="620" width="32.5" height="32.5" as="geometry"/>
                </mxCell>
                <mxCell id="90" value="&lt;b&gt;&lt;font color=&quot;#3333ff&quot; style=&quot;font-size: 20px;&quot;&gt;1&lt;/font&gt;&lt;/b&gt;" style="ellipse;whiteSpace=wrap;html=1;aspect=fixed;strokeWidth=2;fontFamily=Tahoma;spacingBottom=4;spacingRight=2;strokeColor=none;rounded=1;shadow=0;glass=0;sketch=1;fontSize=20;curveFitting=1;jiggle=2;fillColor=default;" vertex="1" parent="1">
                    <mxGeometry x="410" y="767.5" width="32.5" height="32.5" as="geometry"/>
                </mxCell>
                <mxCell id="92" value="&lt;b&gt;&lt;font color=&quot;#3333ff&quot; style=&quot;font-size: 20px;&quot;&gt;1&lt;/font&gt;&lt;/b&gt;" style="ellipse;whiteSpace=wrap;html=1;aspect=fixed;strokeWidth=2;fontFamily=Tahoma;spacingBottom=4;spacingRight=2;strokeColor=none;rounded=1;shadow=0;glass=0;sketch=1;fontSize=20;curveFitting=1;jiggle=2;fillColor=none;" vertex="1" parent="1">
                    <mxGeometry x="520" y="767.5" width="32.5" height="32.5" as="geometry"/>
                </mxCell>
                <mxCell id="95" value="&lt;b&gt;&lt;font color=&quot;#3333ff&quot; style=&quot;font-size: 20px;&quot;&gt;1&lt;/font&gt;&lt;/b&gt;" style="ellipse;whiteSpace=wrap;html=1;aspect=fixed;strokeWidth=2;fontFamily=Tahoma;spacingBottom=4;spacingRight=2;strokeColor=none;rounded=1;shadow=0;glass=0;sketch=1;fontSize=20;curveFitting=1;jiggle=2;fillColor=none;" vertex="1" parent="1">
                    <mxGeometry x="767.5" y="430" width="32.5" height="32.5" as="geometry"/>
                </mxCell>
                <mxCell id="96" value="&lt;b&gt;&lt;font color=&quot;#3333ff&quot; style=&quot;font-size: 19px;&quot;&gt;M&lt;/font&gt;&lt;/b&gt;" style="ellipse;whiteSpace=wrap;html=1;aspect=fixed;strokeWidth=2;fontFamily=Tahoma;spacingBottom=4;spacingRight=2;strokeColor=none;rounded=1;shadow=0;glass=0;sketch=1;fontSize=20;curveFitting=1;jiggle=2;fillColor=none;" vertex="1" parent="1">
                    <mxGeometry x="763.75" y="330" width="40" height="40" as="geometry"/>
                </mxCell>
                <mxCell id="97" value="&lt;b&gt;&lt;font color=&quot;#3333ff&quot; style=&quot;font-size: 20px;&quot;&gt;1&lt;/font&gt;&lt;/b&gt;" style="ellipse;whiteSpace=wrap;html=1;aspect=fixed;strokeWidth=2;fontFamily=Tahoma;spacingBottom=4;spacingRight=2;strokeColor=none;rounded=1;shadow=0;glass=0;sketch=1;fontSize=20;curveFitting=1;jiggle=2;fillColor=none;" vertex="1" parent="1">
                    <mxGeometry x="610" y="610" width="32.5" height="32.5" as="geometry"/>
                </mxCell>
                <mxCell id="98" value="&lt;b&gt;&lt;font color=&quot;#3333ff&quot; style=&quot;font-size: 19px;&quot;&gt;M&lt;/font&gt;&lt;/b&gt;" style="ellipse;whiteSpace=wrap;html=1;aspect=fixed;strokeWidth=2;fontFamily=Tahoma;spacingBottom=4;spacingRight=2;strokeColor=none;rounded=1;shadow=0;glass=0;sketch=1;fontSize=20;curveFitting=1;jiggle=2;fillColor=none;" vertex="1" parent="1">
                    <mxGeometry x="552.5" y="580" width="40" height="40" as="geometry"/>
                </mxCell>
                <mxCell id="99" value="&lt;b&gt;&lt;font color=&quot;#3333ff&quot; style=&quot;font-size: 19px;&quot;&gt;M&lt;/font&gt;&lt;/b&gt;" style="ellipse;whiteSpace=wrap;html=1;aspect=fixed;strokeWidth=2;fontFamily=Tahoma;spacingBottom=4;spacingRight=2;strokeColor=none;rounded=1;shadow=0;glass=0;sketch=1;fontSize=20;curveFitting=1;jiggle=2;fillColor=none;" vertex="1" parent="1">
                    <mxGeometry x="560" y="210" width="40" height="40" as="geometry"/>
                </mxCell>
                <mxCell id="100" value="&lt;b&gt;&lt;font color=&quot;#3333ff&quot; style=&quot;font-size: 20px;&quot;&gt;1&lt;/font&gt;&lt;/b&gt;" style="ellipse;whiteSpace=wrap;html=1;aspect=fixed;strokeWidth=2;fontFamily=Tahoma;spacingBottom=4;spacingRight=2;strokeColor=none;rounded=1;shadow=0;glass=0;sketch=1;fontSize=20;curveFitting=1;jiggle=2;fillColor=none;" vertex="1" parent="1">
                    <mxGeometry x="620" y="177.5" width="32.5" height="32.5" as="geometry"/>
                </mxCell>
                <mxCell id="101" value="&lt;b&gt;&lt;font color=&quot;#3333ff&quot; style=&quot;font-size: 19px;&quot;&gt;M&lt;/font&gt;&lt;/b&gt;" style="ellipse;whiteSpace=wrap;html=1;aspect=fixed;strokeWidth=2;fontFamily=Tahoma;spacingBottom=4;spacingRight=2;strokeColor=none;rounded=1;shadow=0;glass=0;sketch=1;fontSize=20;curveFitting=1;jiggle=2;fillColor=none;" vertex="1" parent="1">
                    <mxGeometry x="1020" y="210" width="40" height="40" as="geometry"/>
                </mxCell>
                <mxCell id="102" value="&lt;b&gt;&lt;font color=&quot;#3333ff&quot; style=&quot;font-size: 20px;&quot;&gt;1&lt;/font&gt;&lt;/b&gt;" style="ellipse;whiteSpace=wrap;html=1;aspect=fixed;strokeWidth=2;fontFamily=Tahoma;spacingBottom=4;spacingRight=2;strokeColor=none;rounded=1;shadow=0;glass=0;sketch=1;fontSize=20;curveFitting=1;jiggle=2;fillColor=none;" vertex="1" parent="1">
                    <mxGeometry x="962.5" y="177.5" width="32.5" height="32.5" as="geometry"/>
                </mxCell>
            </root>
        </mxGraphModel>
    </diagram>
</mxfile>